Leslie Nielsen stars as the granite-jawed, rock-brained cop Frank Drebin, who bumbles across a mind-control scheme to assassinate Queen Elizabeth while on a state visit to America...

Format                           : MPEG-4
Format profile                   : Base Media / Version 2
Codec ID                         : mp42
File size                        : 900 MiB
Duration                         : 1h 21mn
Overall bit rate                 : 1 543 Kbps
Encoded date                     : UTC 2009-12-14 10:28:19
Tagged date                      : UTC 2009-12-14 15:09:08
Writing application              : HandBrake 0.9.3 2008112300

Video
ID                               : 1
Format                           : AVC
Format/Info                      : Advanced Video Codec
Format profile                   : Main@L4.0
Format settings, CABAC           : Yes
Format settings, ReFrames        : 3 frames
Codec ID                         : avc1
Codec ID/Info                    : Advanced Video Coding
Duration                         : 1h 21mn
Bit rate mode                    : Variable
Bit rate                         : 1 379 Kbps
Width                            : 714 pixels
Height                           : 576 pixels
Display aspect ratio             : 16:9
Frame rate mode                  : Variable
Frame rate                       : 25.000 fps
Minimum frame rate               : 12.500 fps
Maximum frame rate               : 25.614 fps
Resolution                       : 24 bits
Colorimetry                      : 4:2:0
Scan type                        : Progressive
Bits/(Pixel*Frame)               : 0.134
Stream size                      : 804 MiB (89%)
Writing library                  : x264 core 65


Audio
ID                               : 2
Format                           : AAC
Format/Info                      : Advanced Audio Codec
Format version                   : Version 4
Format profile                   : LC
Format settings, SBR             : No
Codec ID                         : 40
Duration                         : 1h 21mn
Bit rate mode                    : Variable
Bit rate                         : 160 Kbps
Maximum bit rate                 : 249 Kbps
Channel(s)                       : 2 channels
Channel positions                : L R
Sampling rate                    : 48.0 KHz
Resolution                       : 16 bits
Stream size                      : 93.3 MiB (10%)
Language                         : English
Encoded date                     : UTC 2009-12-14 10:28:20
Tagged date                      : UTC 2009-12-14 15:09:02

